# xmcd CD database file
#
# Track frame offsets:
#	150
#	19402
#	30954
#
# Disc length: 557 seconds
#
# Revision: 2
# Processed by: cddbd v1.5.2PL0 Copyright (c) Steve Scherf et al.
# Submitted via: CDex 1.70beta2
#
DISCID=18022b03
DTITLE=Leon Jackson - When You Believe
DYEAR=2007
DGENRE=Jazz
TTITLE0=When You Believe
TTITLE1=Home
TTITLE2=Fly Me To The Moon
EXTD=SCR 662224 2 YEAR: 2007
EXTT0=
EXTT1=
EXTT2=
PLAYORDER=
